PathFileType  4	(X/Y/Z) C:\Users\antoi\Documents\MyRepositories\mobilecap\ResultsAnalysis
DataRate	CameraRate	NumFrames	NumMarkers	Units	OrigDataRate	OrigDataStartFrame	OrigNumFrames
100.0	100.0	4	51	mm	100.0	70	139
Frame#	Time	r_knee			r_shank_antsup			r_ankle			r_calc			r_5meta			r_toe			L_knee			L_shank_antsup			L_ankle			L_calc			L_5meta			L_toe			r_sh2			r_sh3			r_sh4			L_sh2			L_sh3			r_thigh1			r_thigh2			r_thigh3			r_thigh4			r_thigh5			L_thigh1			L_thigh2			L_thigh3			L_thigh4			r.ASIS			r.PSIS			L.ASIS			L.PSIS			C7			R_Shoulder			L_Shoulder			R_Sternum			L_Sternum			R_humerus			R_elbow_med			R_elbow_lat			R_forearm			R_wrist_radius			R_wrist_ulna			L_humerus			L_elbow_med			L_elbow_lat			L_forearm			L_wrist_radius			L_wrist_ulna			R_HJC			L_HJC			R_HJC_reg			L_HJC_reg			
		X1	Y1	Z1	X2	Y2	Z2	X3	Y3	Z3	X4	Y4	Z4	X5	Y5	Z5	X6	Y6	Z6	X7	Y7	Z7	X8	Y8	Z8	X9	Y9	Z9	X10	Y10	Z10	X11	Y11	Z11	X12	Y12	Z12	X13	Y13	Z13	X14	Y14	Z14	X15	Y15	Z15	X16	Y16	Z16	X17	Y17	Z17	X18	Y18	Z18	X19	Y19	Z19	X20	Y20	Z20	X21	Y21	Z21	X22	Y22	Z22	X23	Y23	Z23	X24	Y24	Z24	X25	Y25	Z25	X26	Y26	Z26	X27	Y27	Z27	X28	Y28	Z28	X29	Y29	Z29	X30	Y30	Z30	X31	Y31	Z31	X32	Y32	Z32	X33	Y33	Z33	X34	Y34	Z34	X35	Y35	Z35	X36	Y36	Z36	X37	Y37	Z37	X38	Y38	Z38	X39	Y39	Z39	X40	Y40	Z40	X41	Y41	Z41	X42	Y42	Z42	X43	Y43	Z43	X44	Y44	Z44	X45	Y45	Z45	X46	Y46	Z46	X47	Y47	Z47	X48	Y48	Z48	X49	Y49	Z49	X50	Y50	Z50	X51	Y51	Z51	

70	0.69000000	513.48148	466.14250	-124.37841	483.73203	364.81937	-132.34816	215.30174	177.48880	-162.71779	153.47671	189.73150	-219.60575	259.16186	59.20453	-113.43075	311.70236	61.66171	-161.48604	782.69533	498.97204	-380.02544	834.76155	421.58399	-360.22812	800.94324	95.77945	-351.55802	727.92663	50.64771	-304.42233	906.85261	40.75227	-386.24689	952.29067	68.66124	-328.71607	404.23631	284.37665	-141.10005	433.63537	409.26658	-97.39449	347.92492	333.71168	-102.94258	756.88363	424.93452	-408.18349	764.34630	304.36524	-409.95092	626.45867	730.94770	-89.21040	615.68256	621.19911	-105.66794	556.26594	599.37611	-82.34084	513.18324	735.90063	-74.38882	507.55021	623.95547	-101.08000	758.88606	751.52018	-406.30846	815.21594	627.15061	-372.57692	669.25574	701.06019	-446.45912	721.18977	583.40832	-409.28326	683.39400	930.51559	-118.99573	485.28399	964.46483	-223.37750	708.27943	947.11691	-372.94486	496.34639	963.39242	-316.50540	504.02899	1422.75843	-267.03188	562.03362	1401.36763	-99.34249	587.25765	1393.13261	-416.71339	634.40027	1358.48897	-234.48059	634.55780	1359.21335	-281.38376	603.60843	1276.58374	-39.60281	553.95504	1064.18691	-78.17498	552.60339	1077.91759	-11.69209	620.98021	1031.67024	18.56715	722.78043	893.33600	2.65525	684.78361	882.20801	35.05418	603.07263	1252.57877	-479.46789	520.24900	1058.14558	-433.86126	525.88298	1073.78784	-511.98209	562.37673	1013.44570	-539.32024	574.56671	834.13959	-547.43487	534.59554	849.33699	-573.39848	605.94328	843.21984	-159.91276	627.89317	854.56192	-347.84025	611.99117	863.32638	-162.74044	631.91043	861.36576	-330.29892	
71	0.70000000	538.51746	464.16857	-123.66037	505.92340	363.76182	-131.24665	231.73501	187.13798	-161.64243	172.17401	205.22451	-219.01778	264.53020	64.79250	-113.68052	317.08082	62.91621	-161.31700	792.25087	499.55497	-381.29561	842.66140	420.80042	-360.98358	801.31482	95.60318	-351.74027	727.98153	50.68556	-304.58494	906.83250	40.59018	-386.45876	952.50654	68.03710	-328.71329	423.54723	286.10769	-139.90353	457.30940	410.12727	-96.80891	369.00148	337.57483	-102.24934	765.27629	425.62662	-409.68308	770.12125	304.99319	-411.15022	644.60393	731.58572	-90.97330	636.86231	621.46045	-106.43995	577.71473	598.07143	-83.24074	531.21546	733.78955	-76.52920	528.84125	621.48304	-102.05521	771.61337	752.75946	-407.59482	826.45128	627.77915	-373.85201	681.52079	703.31440	-448.27462	731.90694	584.98360	-411.14712	698.11471	931.79533	-122.08709	499.35177	965.20825	-223.30449	721.89046	949.82487	-375.27127	509.91055	965.50900	-317.04610	517.01003	1424.27263	-268.91650	574.51189	1403.04706	-101.08740	600.52329	1394.85956	-418.39890	647.36938	1360.40742	-236.12924	647.64277	1361.17681	-283.01836	614.73531	1277.92042	-40.79965	564.15638	1066.13833	-81.30115	562.12646	1079.49663	-14.69156	629.46036	1032.10683	16.08074	729.05977	892.00764	0.50113	690.60855	881.49795	32.61348	617.93711	1254.38361	-480.70612	537.04155	1059.20620	-434.86965	543.31808	1074.48652	-513.07881	580.99296	1014.45970	-539.54825	595.60794	835.36027	-546.46417	555.93232	849.78974	-573.00150	621.07445	844.30114	-162.24426	641.48609	857.01584	-350.25287	627.44337	863.63579	-166.22497	646.28760	864.14268	-333.41801	
72	0.71000000	564.63456	462.16265	-122.69002	529.47072	362.81141	-130.26856	250.29819	196.83848	-160.65565	193.54026	220.78046	-218.54554	271.40523	71.46187	-113.99442	323.64408	64.91908	-161.21369	800.94621	499.90227	-382.56126	849.85965	419.94589	-361.73447	801.54154	95.43842	-351.94192	727.98399	50.70727	-304.72585	906.79044	40.54605	-386.61732	952.60841	67.64553	-328.69191	444.39752	287.92873	-138.89490	482.37885	410.81629	-96.11733	391.66161	341.25489	-101.47808	772.95722	426.08382	-411.10207	775.42748	305.44837	-412.26938	662.79681	732.41764	-92.59100	658.44020	621.98706	-107.07806	599.59581	596.92058	-83.84143	549.34100	731.51478	-78.68521	550.56086	618.85437	-102.84058	783.93590	753.75860	-408.64485	837.02873	628.07601	-374.94199	693.41621	705.52041	-450.06856	741.97213	586.42494	-412.95500	712.29158	933.18356	-125.23415	513.09486	965.91780	-223.26428	734.94886	952.55435	-377.73387	523.19297	967.58945	-317.57063	529.92832	1425.87863	-270.72240	586.85968	1404.79190	-102.75998	613.78316	1396.76990	-419.96246	660.23012	1362.38140	-237.65106	660.69242	1363.23667	-284.52236	625.75148	1279.36642	-41.96276	574.37088	1068.22187	-84.44884	571.54542	1081.19275	-17.69121	637.77521	1032.62772	13.61542	735.04608	890.70604	-1.62004	696.12252	880.86311	30.17170	632.86355	1256.42626	-481.86284	553.89412	1060.50566	-435.84012	560.88330	1075.43199	-514.15038	599.81502	1015.76045	-539.66997	617.16427	836.96513	-545.31062	577.70717	850.54126	-572.44984	635.81915	845.43620	-164.60930	654.65000	859.47016	-352.68941	642.36647	863.99878	-169.84721	660.23747	866.92997	-336.67327	
73	0.72000000	591.47300	460.33501	-121.53661	554.14537	362.09594	-129.49416	270.78757	206.28127	-159.83499	217.22376	235.77067	-218.29589	280.20271	78.98453	-114.33053	331.83804	67.70216	-161.11430	808.79432	499.97697	-383.81681	856.34685	418.97764	-362.57590	801.68725	95.27074	-352.15938	727.97007	50.74146	-304.83217	906.76759	40.52666	-386.73261	952.65322	67.35740	-328.66351	466.63546	289.87256	-138.13896	508.57740	411.41326	-95.35817	415.69036	344.74156	-100.67508	779.82604	426.26633	-412.42440	780.19786	305.68805	-413.28026	680.87406	733.49544	-94.03569	680.17670	622.86542	-107.55877	621.69638	596.07411	-84.14219	567.42207	729.20758	-80.81125	572.48080	616.23987	-103.46076	795.79855	754.44878	-409.55381	846.90553	627.97296	-375.92242	704.87963	707.58493	-451.81767	751.39163	587.67566	-414.69967	725.85759	934.63876	-128.31498	526.50670	966.57825	-223.31804	747.48543	955.16631	-380.22986	536.19804	969.60988	-318.10067	542.76734	1427.52861	-272.44514	599.07494	1406.54983	-104.34368	627.06158	1398.80799	-421.39857	672.98910	1364.36174	-239.03360	673.71119	1365.34188	-285.88662	636.69036	1280.86260	-43.10221	584.56129	1070.37204	-87.57520	580.87912	1082.95334	-20.66563	645.94218	1033.18927	11.19213	740.77214	889.41604	-3.69075	701.37884	880.27934	27.75633	647.86205	1258.64432	-482.92086	570.77604	1061.99264	-436.78892	578.57402	1076.58101	-515.18581	618.81215	1017.30058	-539.69850	639.22638	838.90686	-543.97932	599.88722	851.55432	-571.76046	650.07867	846.59769	-166.92501	667.39123	861.82494	-355.06416	656.71933	864.33657	-173.49820	673.74296	869.64185	-339.96672	
